<?xml version="1.0" encoding="iso-8859-1"?>
<!-- Generator: Adobe Illustrator 19.0.0, SVG Export Plug-In . SVG Version: 6.00 Build 0)  -->
<svg version="1.1" id="Layer_1" xmlns="http://www.w3.org/2000/svg" xmlns:xlink="http://www.w3.org/1999/xlink" x="0px" y="0px"
	 viewBox="0 0 512.002 512.002" style="enable-background:new 0 0 512.002 512.002;" xml:space="preserve">
<g>
	<g>
		<path d="M437.02,74.981C388.668,26.629,324.382,0.001,256.001,0.001S123.334,26.629,74.982,74.981
			C26.629,123.333,0,187.621,0,256.001s26.629,132.668,74.982,181.02c48.352,48.352,112.638,74.981,181.02,74.981
			c68.379,0,132.668-26.629,181.02-74.981c48.352-48.352,74.981-112.64,74.981-181.02S485.372,123.333,437.02,74.981z
			 M256.001,494.222c-131.356,0-238.222-106.865-238.222-238.221S124.645,17.779,256.001,17.779S494.221,124.645,494.221,256
			C494.221,387.357,387.356,494.222,256.001,494.222z"/>
	</g>
</g>
<g>
	<g>
		<path d="M181.919,114.794c-2.526-4.211-7.986-5.579-12.195-3.056c-42.692,25.583-71.714,68.311-79.626,117.228
			c-0.786,4.849,2.509,9.413,7.356,10.197c0.48,0.077,0.959,0.115,1.429,0.115c4.285,0,8.058-3.105,8.765-7.472
			c7.074-43.728,33.03-81.932,71.215-104.817C183.075,124.465,184.443,119.006,181.919,114.794z"/>
	</g>
</g>
<g>
	<g>
		<path d="M424.251,183.279c-9.833-9.162-16.64-20.588-19.685-33.04c-8.397-34.344-32.616-63.726-64.781-78.599
			c-4.453-2.06-9.738-0.119-11.799,4.338c-2.06,4.457-0.119,9.739,4.338,11.8c27.297,12.622,47.848,37.552,54.973,66.685
			c3.871,15.829,12.458,30.291,24.833,41.824c17.05,15.888,26.305,38.376,25.397,61.698c-1.634,41.921-35.78,75.628-77.737,76.737
			c-26.829,0.703-52.08-11.958-67.554-33.884c-9.633-13.648-22.664-23.948-37.685-29.785
			c-39.149-15.215-64.657-53.682-63.472-95.721c0.717-25.495,11.198-49.538,29.51-67.701c18.311-18.161,42.441-28.448,67.944-28.966
			c4.574-0.094,9.18,0.124,13.679,0.648c4.88,0.564,9.29-2.928,9.855-7.805c0.567-4.876-2.929-9.289-7.805-9.855
			c-5.296-0.615-10.704-0.87-16.09-0.763c-30.09,0.61-58.538,12.727-80.105,34.118c-21.569,21.394-33.915,49.742-34.762,79.824
			c-1.396,49.534,28.665,94.862,74.803,112.794c11.753,4.568,21.989,12.682,29.599,23.465c18.407,26.08,48.136,41.44,79.936,41.44
			c0.87,0,1.741-0.012,2.613-0.034c51.291-1.357,93.034-42.566,95.032-93.818C456.403,230.179,445.088,202.698,424.251,183.279z"/>
	</g>
</g>
<g>
	<g>
		<path d="M307.364,112.312c-35.836,0-64.99,29.155-64.99,64.99s29.155,64.99,64.99,64.99c9.776,0,19.178-2.119,27.944-6.3
			c4.432-2.113,6.311-7.418,4.198-11.85c-2.112-4.432-7.422-6.311-11.849-4.198c-6.359,3.032-13.187,4.569-20.294,4.569
			c-26.033,0-47.212-21.179-47.212-47.212s21.179-47.212,47.212-47.212c26.034,0,47.213,21.179,47.213,47.212
			c0,9.461-2.787,18.587-8.058,26.391c-2.747,4.069-1.678,9.595,2.391,12.343c4.069,2.749,9.593,1.678,12.342-2.391
			c7.264-10.754,11.105-23.321,11.105-36.343C372.356,141.466,343.2,112.312,307.364,112.312z"/>
	</g>
</g>
<g>
	<g>
		<path d="M325.084,352.072c-70.201-12.331-136.597-42.542-192.014-87.363c-21.277-17.21-51.724-15.412-70.81,4.17l-0.628,0.644
			c-10.313,10.582-15.728,25.111-14.857,39.862c0.871,14.75,7.958,28.539,19.443,37.832c11.719,9.482,23.99,18.566,36.476,27
			c4.067,2.749,9.593,1.68,12.342-2.389c2.747-4.068,1.678-9.593-2.391-12.342c-12.063-8.151-23.923-16.929-35.246-26.091
			c-7.719-6.245-12.291-15.144-12.876-25.058c-0.586-9.916,2.909-19.292,9.839-26.402l0.62-0.635
			c12.645-12.977,32.812-14.167,46.907-2.765c57.756,46.714,126.956,78.199,200.119,91.05c17.853,3.136,30.206,19.122,28.734,37.17
			l-0.073,0.891c-0.808,9.899-5.581,18.695-13.442,24.768c-7.861,6.071-17.574,8.467-27.352,6.754
			c-60.552-10.626-118.101-31.865-171.046-63.128c-4.224-2.495-9.676-1.093-12.174,3.135c-2.496,4.228-1.093,9.679,3.135,12.174
			c54.793,32.354,114.35,54.335,177.015,65.332c3.01,0.529,6.041,0.788,9.061,0.788c11.574,0,22.961-3.82,32.233-10.985
			c11.694-9.035,19.09-22.663,20.294-37.415l0.071-0.857C370.685,380.941,352.037,356.806,325.084,352.072z"/>
	</g>
</g>
<g>
	<g>
		<circle cx="317.633" cy="260.268" r="8.889"/>
	</g>
</g>
<g>
	<g>
		<circle cx="335.803" cy="295.825" r="8.889"/>
	</g>
</g>
<g>
	<g>
		<circle cx="395.065" cy="246.839" r="8.889"/>
	</g>
</g>
<g>
</g>
<g>
</g>
<g>
</g>
<g>
</g>
<g>
</g>
<g>
</g>
<g>
</g>
<g>
</g>
<g>
</g>
<g>
</g>
<g>
</g>
<g>
</g>
<g>
</g>
<g>
</g>
<g>
</g>
</svg>
