<svg id="Logo-2" data-name="Logo" xmlns="http://www.w3.org/2000/svg" xmlns:xlink="http://www.w3.org/1999/xlink" width="161" height="50" viewBox="0 0 161 50">
  <defs>
    <clipPath id="clip-path">
      <path id="Logo" d="M129.533,49.922a3.07,3.07,0,0,1-1.6-.451,6.2,6.2,0,0,1-2.608-2.76,6.367,6.367,0,0,1-.321-3.9c.575-2.9,1.153-5.484,1.768-7.894a11.853,11.853,0,0,1-1.022,1.028,3.919,3.919,0,0,1-2.646,1.009,4.478,4.478,0,0,1-2.655-.9,7.32,7.32,0,0,1-2.737-3.3,8.9,8.9,0,0,1-.3-1.086c-.039-.167-.079-.338-.123-.505a23.894,23.894,0,0,1,1.274-5.537l.313-.979.011-.034c.608-1.9,1.236-3.874,1.916-5.789.326-.918.733-1.825,1.125-2.7.175-.39.354-.791.525-1.188.1-.222.194-.446.29-.663.192-.435.389-.883.566-1.331.24-.607.478-.958.985-.958a2.027,2.027,0,0,1,.557.1,8.9,8.9,0,0,1,2.317.977,2.42,2.42,0,0,1,1.111,1.421,3.019,3.019,0,0,1-.2,1.84c-.441,1.13-.907,2.271-1.357,3.376-.754,1.848-1.532,3.756-2.218,5.663-.563,1.564-1.017,3.2-1.455,4.781-.192.692-.39,1.407-.594,2.106l-.012.038a.459.459,0,0,0-.034.214c.054.269.119.541.181.8v0l.058.246c.091-.04.19-.072.286-.1a1.418,1.418,0,0,0,.562-.281c.317-.314.642-.628.956-.931a24.122,24.122,0,0,0,3.523-3.937,2.124,2.124,0,0,1,.237-.3.626.626,0,0,1,.4-.24.279.279,0,0,1,.219.12c1.013-3.07,2.066-6.078,3.337-9.65.414-1.164.871-2.335,1.313-3.467.322-.825.654-1.675.967-2.516.2-.543.226-.882.077-1.1s-.507-.329-1.143-.331h-.036a30.963,30.963,0,0,0-4.111.367c-1.066.144-2.168.292-3.261.346-.311.015-.629.023-.944.023-.354,0-.715-.01-1.073-.028-.322-.017-.861-.044-.852-.563.006-.367.332-.4.62-.424.063-.006.121-.011.176-.02l2.176-.327,2.327-.35a2.62,2.62,0,0,1-2.6-1.348,1.811,1.811,0,0,1-.139-.984,17.9,17.9,0,0,1,1.391-4.678l.009-.022.172-.432a1.131,1.131,0,0,1,1.147-.752c.065,0,.133,0,.2.01a5.233,5.233,0,0,1,3.2,1.319,1.992,1.992,0,0,1,.618,2.642,9.35,9.35,0,0,1-2.8,3.752,2.358,2.358,0,0,1-1.047.468c1.206-.18,1.99-.295,2.708-.4l.543-.081a18.364,18.364,0,0,1,2.475-.26,2,2,0,0,0,1.959-1.352c.5-1.19.966-2.445,1.425-3.836.294-.891.489-1.207,1-1.207a3.133,3.133,0,0,1,.8.144l.317.086a4.59,4.59,0,0,1,2.3,1.116,2.717,2.717,0,0,1,.852,2.772c-.122.466-.119.752.012.93s.393.26.876.273c.2.006.423.008.689.008l.542,0,.542,0,0-.2h.117c.319,0,.642,0,.955,0h.015c.356,0,.724,0,1.086,0,.684,0,1.238.009,1.744.03a1.72,1.72,0,0,1,1.12.429,1.229,1.229,0,0,1,.342,1.235,1.342,1.342,0,0,1-1.14.806c-.61.089-1.238.119-1.846.147h0c-.222.01-.451.021-.675.035l-.833.05c-1.131.069-2.3.14-3.453.187a1.964,1.964,0,0,0-1.947,1.324c-.449,1.1-.929,2.207-1.393,3.279a63.3,63.3,0,0,0-3.405,9.134c-.259,1-.623,1.985-.974,2.94-.243.66-.493,1.341-.708,2.019-.612,1.94-1.195,3.924-1.731,5.9s-1.032,3.966-1.514,5.9l-.2.808c-.194.778-.412,1.7-.564,2.633a1.621,1.621,0,0,0,.087.657c.027.1.055.2.074.3.087-.046.183-.085.276-.124a1.377,1.377,0,0,0,.544-.326,16.345,16.345,0,0,0,1.513-2.055c1.341-2.243,2.708-4.589,4.18-7.173.7-1.228,1.4-2.487,2.069-3.7l.575-1.038a10.271,10.271,0,0,1-.254-5.4,19.426,19.426,0,0,1,4.6-9.587,27.849,27.849,0,0,1,3.118-2.787c.3-.238.6-.485.9-.731a1.966,1.966,0,0,1,1.3-.455,3.427,3.427,0,0,1,.986.161c.29.087.589.165.878.24a14.475,14.475,0,0,1,1.432.424l.164.061.008,0a6.994,6.994,0,0,1,1.969.975,3.172,3.172,0,0,1,.949,3.495,38.847,38.847,0,0,1-2.846,7.548l-.062.132a27.342,27.342,0,0,1-1.58,3.046,10.647,10.647,0,0,1-1.744,2,1.561,1.561,0,0,1-1.095.45,2.253,2.253,0,0,1-.785-.158A6.132,6.132,0,0,1,145.4,29.08c-.219-.235-.492-.528-.787-.528a.5.5,0,0,0-.284.094,1.641,1.641,0,0,0-.556,1.063,9.285,9.285,0,0,0-.077,2.423c.226,1.622,1.107,2.553,2.415,2.553a3.4,3.4,0,0,0,.565-.05,8.469,8.469,0,0,0,4.246-2.118,47.236,47.236,0,0,0,5.494-6.029c.974-1.212,2.013-2.4,3.018-3.553l.457-.523a1.09,1.09,0,0,1,.4-.244c.069-.03.139-.06.2-.1a2.507,2.507,0,0,0,.1.258.868.868,0,0,1,.119.529l-.03.1a16.687,16.687,0,0,1-2.2,5.162c-.438.606-.874,1.23-1.3,1.833l0,0c-.776,1.11-1.579,2.257-2.423,3.343a19.953,19.953,0,0,1-2.638,2.749,4.952,4.952,0,0,1-3.417,1.136c-.151,0-.308,0-.468-.013-.122.007-.245.01-.366.01a7.955,7.955,0,0,1-4.825-1.851,9.321,9.321,0,0,1-2.4-2.563,11.174,11.174,0,0,1-.364,1.141c-.977,2.55-2.108,5.21-3.458,8.133a49.253,49.253,0,0,1-2.587,4.711,6.253,6.253,0,0,1-3.518,2.967A3.971,3.971,0,0,1,129.533,49.922ZM150.968,16.7h0c-.092.062-.176.115-.258.166a2.9,2.9,0,0,0-.433.307c-.164.152-.318.32-.467.484-.1.114-.212.232-.322.343a21.157,21.157,0,0,0-4.329,6.692,2.509,2.509,0,0,0,.318,2.4c.159.288.327.422.531.422a.857.857,0,0,0,.489-.2,5.924,5.924,0,0,0,1.822-2.568c.761-1.759,1.5-3.565,2.206-5.312l.014-.035q.331-.813.663-1.626a1.23,1.23,0,0,0,.133-.606.666.666,0,0,0-.22-.31c-.05-.049-.1-.1-.147-.155ZM67.038,49.922a3.07,3.07,0,0,1-1.6-.451,6.2,6.2,0,0,1-2.608-2.76,6.367,6.367,0,0,1-.321-3.9A121.353,121.353,0,0,1,66.122,28.52c1.065-3.259,2.189-6.472,3.547-10.292.093-.26.19-.528.3-.82-.155.112-.3.209-.431.3-.272.181-.554.353-.826.518a10.9,10.9,0,0,0-1.783,1.257A10.534,10.534,0,0,1,65.11,20.73c-.3.179-.617.363-.915.559l-.3.2c-.632.414-1.287.842-1.9,1.3-1.15.853-1.263,1.289-.671,2.591.108.237.226.473.34.7s.225.451.331.682a7.848,7.848,0,0,1,.67,4.713,9.889,9.889,0,0,1-2.044,4.271,4.579,4.579,0,0,1-3.627,1.533l-.295.006.295-.006c-.108,0-.211.007-.322.007l-.282,0-.282,0a10.334,10.334,0,0,1-6.027-2.238l-.082.13A3.292,3.292,0,0,1,47.169,36.8a4.174,4.174,0,0,1-2.214-.694,6.8,6.8,0,0,1-3.342-5.429,7.421,7.421,0,0,0-.187-1.2c-.045-.182-.214-.488-.322-.493H41.09a.7.7,0,0,0-.493.3c-.424.618-.846,1.254-1.254,1.869l0,0c-.791,1.193-1.609,2.427-2.482,3.583a3.591,3.591,0,0,1-2.923,1.715c-.09,0-.182,0-.274-.011-.22-.018-.445-.027-.661-.035a4.212,4.212,0,0,1-2.583-.688,7.021,7.021,0,0,1-2.949-5.637,9.96,9.96,0,0,1,1.5-5.906c.424-.683.833-1.4,1.228-2.084a40.243,40.243,0,0,1,2.167-3.5A22.794,22.794,0,0,1,34.8,15.876c.352-.352.715-.715,1.062-1.081.085-.09.169-.183.251-.274a4.338,4.338,0,0,1,.927-.849,4.028,4.028,0,0,1,2.132-.542l.172,0a9.511,9.511,0,0,1,6.018,2.332,1.551,1.551,0,0,0,.792.455c.249,0,.412-.261.627-.743.083-.187.173-.388.261-.593.419-.978.611-1.294,1.272-1.294a6.06,6.06,0,0,1,.847.088,3.432,3.432,0,0,1,2.255,1.536,2.985,2.985,0,0,1,.5,2.3,19.687,19.687,0,0,1-.966,2.791c-.162.4-.33.818-.482,1.23-.189.512-.378,1.029-.561,1.53-.414,1.132-.843,2.3-1.282,3.448-.167.435-.356.868-.538,1.286-.242.554-.492,1.127-.693,1.711a22.243,22.243,0,0,0-.8,3.021,1.493,1.493,0,0,0,.166.754c.047.119.1.243.129.36.107-.031.223-.054.336-.075a1.408,1.408,0,0,0,.667-.241L47.924,33l.035-.031a1.227,1.227,0,0,1,.214-1.419A10.539,10.539,0,0,1,50,29.612c1.323-1.072,2.7-2.123,4.031-3.14l0,0c.487-.372.991-.756,1.49-1.14.1-.076.2-.15.3-.221.138-.1.281-.2.414-.31a1.33,1.33,0,0,0,.42-1.912c-.378-.795-.768-1.617-1.2-2.405a7.159,7.159,0,0,1-.435-6.305A9.493,9.493,0,0,1,57.692,10.8a4.97,4.97,0,0,1,.709-.538,4.3,4.3,0,0,1,2.291-.8,3.24,3.24,0,0,1,.687.075,13.631,13.631,0,0,1,2.22.65c1.846-.279,3.51-.529,5.173-.769l.543-.081a18.364,18.364,0,0,1,2.475-.26,2,2,0,0,0,1.959-1.352c.5-1.19.966-2.445,1.425-3.836.294-.891.489-1.207,1-1.207a3.132,3.132,0,0,1,.8.144l.317.086a4.59,4.59,0,0,1,2.3,1.116A2.717,2.717,0,0,1,80.44,6.8c-.122.466-.119.752.012.93s.393.26.877.273c.2.006.423.008.689.008l.542,0L83.1,8V7.8h.117c.319,0,.642,0,.955,0h.015c.356,0,.724,0,1.086,0,.683,0,1.238.009,1.744.03a1.723,1.723,0,0,1,1.121.429,1.229,1.229,0,0,1,.342,1.235,1.342,1.342,0,0,1-1.141.806c-.61.089-1.238.119-1.846.147h0c-.222.01-.451.021-.675.035l-.833.05c-1.133.069-2.3.14-3.453.187a1.964,1.964,0,0,0-1.947,1.324c-.449,1.1-.928,2.206-1.391,3.276l0,0a63.286,63.286,0,0,0-3.4,9.133c-.259,1-.623,1.986-.974,2.941-.242.659-.493,1.34-.708,2.019-.612,1.94-1.195,3.924-1.731,5.9s-1.032,3.966-1.514,5.9l-.2.808c-.194.778-.412,1.7-.564,2.633a1.621,1.621,0,0,0,.087.657c.027.1.055.2.074.3.087-.046.183-.085.276-.124a1.377,1.377,0,0,0,.544-.326,16.344,16.344,0,0,0,1.513-2.055c1.341-2.243,2.708-4.589,4.18-7.173.7-1.23,1.4-2.489,2.071-3.706l.024-.044.549-.991a10.271,10.271,0,0,1-.254-5.4,19.43,19.43,0,0,1,4.6-9.587,27.851,27.851,0,0,1,3.118-2.787c.3-.238.6-.485.9-.731a1.966,1.966,0,0,1,1.3-.455,3.427,3.427,0,0,1,.986.161c.29.087.588.164.877.239a14.513,14.513,0,0,1,1.434.425l.173.065a6.991,6.991,0,0,1,1.967.974,3.172,3.172,0,0,1,.949,3.495,38.846,38.846,0,0,1-2.846,7.548l-.066.141a27.168,27.168,0,0,1-1.576,3.037,10.647,10.647,0,0,1-1.744,2,1.561,1.561,0,0,1-1.095.45,2.252,2.252,0,0,1-.785-.158,6.136,6.136,0,0,1-2.444-1.538c-.219-.235-.492-.528-.787-.528a.5.5,0,0,0-.284.094,1.645,1.645,0,0,0-.556,1.063,9.284,9.284,0,0,0-.077,2.423c.226,1.622,1.107,2.553,2.415,2.553a3.4,3.4,0,0,0,.565-.05,8.469,8.469,0,0,0,4.246-2.118,47.24,47.24,0,0,0,5.494-6.029c.494-.615,1.041-1.269,1.721-2.059a71.665,71.665,0,0,1,2.581-7.686c.809-2.087,1.693-4.223,2.628-6.348.4-.911.841-1.821,1.266-2.7s.86-1.777,1.259-2.683c.521-1.181.968-2.425,1.4-3.628l.144-.4c.258-.716.542-.982,1.047-.982a2.865,2.865,0,0,1,.73.121,5.068,5.068,0,0,1,2.509,1.806,2.014,2.014,0,0,1,.393,2.125l-.105.255c-.443,1.073-.9,2.182-1.326,3.286-.113.293-.207.6-.3.9a9.934,9.934,0,0,1-.4,1.157c-.4.894-.823,1.794-1.232,2.665-.648,1.379-1.318,2.8-1.912,4.239-.738,1.783-1.4,3.64-2.034,5.437-.189.532-.383,1.081-.578,1.623-.173.482-.315.987-.452,1.476l0,.006c-.063.225-.128.458-.2.686l.108.028.011,0,.136.036c.463-.739.929-1.49,1.381-2.217l0,0c1.047-1.685,2.129-3.426,3.223-5.119a16.743,16.743,0,0,1,4.5-4.465,2.9,2.9,0,0,1,1.726-.528,3.932,3.932,0,0,1,.879.1,12.822,12.822,0,0,1,2.647.914c1.992.949,2.523,2.809,2.932,4.795a10.162,10.162,0,0,1-.154,3.777c-.043.255-.087.516-.126.773a22.771,22.771,0,0,1-3.072,8.333,5.2,5.2,0,0,1-.91,1.19l-.241.223c-.944.872-1.919,1.774-2.958,2.563a4.124,4.124,0,0,1-2.589.836,7.819,7.819,0,0,1-2.376-.423c-.169-.054-.341-.107-.508-.158a7.362,7.362,0,0,1-3.125-1.551.9.9,0,0,0-.616-.283,1.02,1.02,0,0,0-.735.39,2.962,2.962,0,0,1-2.074,1.188,2.235,2.235,0,0,1-.832-.172,5.931,5.931,0,0,1-3.653-5.965L94.6,30.1c-.7,1-1.5,2.138-2.324,3.2a19.952,19.952,0,0,1-2.638,2.749,4.952,4.952,0,0,1-3.417,1.136c-.151,0-.308,0-.467-.013-.122.007-.245.01-.366.01a7.955,7.955,0,0,1-4.825-1.851,9.321,9.321,0,0,1-2.4-2.563,11.174,11.174,0,0,1-.364,1.141c-.977,2.55-2.108,5.21-3.458,8.133a49.024,49.024,0,0,1-2.587,4.711,6.253,6.253,0,0,1-3.518,2.967A3.971,3.971,0,0,1,67.038,49.922ZM42.734,16.2a1.5,1.5,0,0,0-.763.21,17.343,17.343,0,0,0-3.835,3.253,32.8,32.8,0,0,0-3.953,5.449,20.209,20.209,0,0,0-2.53,5.767,10.059,10.059,0,0,0-.183,1.244c-.02.19-.041.387-.066.579l.113.018c.006.077.012.155.017.232.013.186.026.378.056.566a.948.948,0,0,0,.112.278c.017.032.034.065.05.1.2.417.39.595.634.595a1.018,1.018,0,0,0,.491-.167,2.915,2.915,0,0,0,.769-.647l.2-.24A21.184,21.184,0,0,0,35.3,31.588c.783-1.168,1.56-2.365,2.313-3.523.659-1.013,1.34-2.061,2.021-3.085,1.724-2.594,3.159-4.707,4.516-6.652A1.024,1.024,0,0,0,44.132,17,1.709,1.709,0,0,0,42.734,16.2ZM57.888,26.593a1.3,1.3,0,0,0-.739.33c-1.74,1.341-3.309,2.555-4.906,3.825a12.425,12.425,0,0,0-1.593,1.464,1.054,1.054,0,0,0-.34.95,1,1,0,0,0,.762.6,12.577,12.577,0,0,0,1.451.3h0c.21.035.427.071.639.111l.021-.138c.067,0,.135,0,.2,0s.134,0,.2,0a2.178,2.178,0,0,0,.231-.011c.161-.017.326-.029.485-.04a3.048,3.048,0,0,0,1.926-.575,6.525,6.525,0,0,0,2.291-5.939C58.448,26.9,58.229,26.593,57.888,26.593Zm55.361-10.108a1.478,1.478,0,0,0-.889.343c-.21.2-.423.39-.629.578a18.157,18.157,0,0,0-2.595,2.72c-1.438,2.007-2.712,4.165-4,6.384-.565.972-1.067,2.008-1.553,3.009-.257.53-.522,1.077-.795,1.609a1.511,1.511,0,0,0,.3,1.725,2.716,2.716,0,0,0,2.141,1.2,2.446,2.446,0,0,0,1.541-.58,13.25,13.25,0,0,0,3.431-3.61c.223-.394.469-.784.707-1.162a14.977,14.977,0,0,0,1.273-2.312,28.557,28.557,0,0,0,1.319-4.558c.2-.924.316-1.893.425-2.83.049-.418.1-.85.157-1.273-.064-.142-.118-.3-.17-.448-.114-.332-.222-.645-.419-.743A.556.556,0,0,0,113.249,16.485ZM88.473,16.7h0c-.092.062-.177.115-.259.167a2.9,2.9,0,0,0-.432.307c-.164.152-.318.32-.467.484-.1.114-.212.232-.322.343a21.156,21.156,0,0,0-4.329,6.692,2.509,2.509,0,0,0,.318,2.4c.159.288.327.422.53.422a.857.857,0,0,0,.489-.2,5.923,5.923,0,0,0,1.822-2.568c.761-1.76,1.5-3.567,2.207-5.314l.008-.02q.334-.82.668-1.639a1.238,1.238,0,0,0,.133-.606.668.668,0,0,0-.22-.31c-.049-.049-.1-.1-.146-.155ZM70.85,10.813a30.983,30.983,0,0,0-4.112.367c-.408.055-.829.112-1.245.162a1.235,1.235,0,0,1,.146.2.7.7,0,0,1,.095.566.652.652,0,0,1-.4.379,1.014,1.014,0,0,1-.243.072,7.726,7.726,0,0,0-3.988,2.37,5.977,5.977,0,0,0-2.158,5.839c.173.829.4,1.167.8,1.167a1.971,1.971,0,0,0,.931-.359c.5-.3,1-.631,1.489-.948.594-.388,1.208-.789,1.83-1.15,1.306-.76,2.651-1.5,3.951-2.221l.021-.012c.512-.283,1.041-.575,1.56-.865.34-.189.692-.385,1.04-.568q.2-.522.406-1.043c.323-.828.657-1.683.972-2.529.2-.543.226-.882.077-1.1s-.507-.329-1.143-.331ZM17.36,43.88h-.01a4.223,4.223,0,0,1-2.22-.467,17.938,17.938,0,0,1-2-1.53l-.052-.044a2.147,2.147,0,0,1-.791-1.684c-.005-.483-.034-.974-.061-1.448-.012-.2-.024-.411-.034-.617a21.607,21.607,0,0,1,.889-5.431c.742-2.7,1.711-5.376,2.647-7.962q.21-.579.419-1.158l.1-.279c.883-2.453,1.8-4.99,2.905-7.4l.107-.232c.209-.455.425-.924.627-1.392a.235.235,0,0,0-.03-.22.273.273,0,0,0-.215-.134.172.172,0,0,0-.045.006c-.195.052-.393.1-.585.153h0c-.538.139-1.094.282-1.626.467-.4.139-.806.278-1.2.413-1.549.531-3.15,1.08-4.686,1.716a31.049,31.049,0,0,0-6.251,3.294,6.654,6.654,0,0,0-1.895,1.951,3.034,3.034,0,0,0-.593,1.8,1.579,1.579,0,0,1-.036.41.629.629,0,0,1-.6.525.515.515,0,0,1-.342-.131A4.263,4.263,0,0,1,.071,21.618c0-.039-.007-.078-.012-.116l0-.022a5.38,5.38,0,0,1,1.651-4.868,14.345,14.345,0,0,1,2.98-2.141,60.117,60.117,0,0,1,6.689-3.021A102.683,102.683,0,0,1,22.753,7.817c1.3-.354,2.641-.641,3.938-.919.751-.161,1.528-.327,2.288-.5,2.244-.522,4.484-.952,6.657-1.277.831-.124,1.816-.265,2.824-.366.41-.041.826-.088,1.229-.133a35.4,35.4,0,0,1,3.922-.292h.126a1.569,1.569,0,0,1,1.6,1,4.754,4.754,0,0,1,.493,2.536A1.249,1.249,0,0,1,44.684,9.17l-.287.06-.021,0a18.563,18.563,0,0,1-2.63.423,48.687,48.687,0,0,0-5.119.554c-.942.16-1.887.319-2.8.472-1.186.2-2.413.405-3.625.613-.243.042-.488.1-.724.156-.153.036-.312.074-.469.107l-.015,0c-1.457.305-1.457.305-2.163,1.532a10.307,10.307,0,0,0-.509.975c-.282.637-.561,1.289-.831,1.919v0c-.546,1.275-1.11,2.593-1.726,3.859C22.9,21.624,22.2,23.442,21.5,25.3c-.52,1.376-1,2.791-1.474,4.159l-.086.251c-.2.574-.385,1.162-.566,1.73-.148.461-.3.938-.456,1.4a15.324,15.324,0,0,0-.88,3.6,7.7,7.7,0,0,1-.2,1.082c-.051.22-.1.447-.144.673a8.174,8.174,0,0,0,.282,4.347l.025.066,0,0a1.441,1.441,0,0,1,.064.189.951.951,0,0,1-.124.809A.7.7,0,0,1,17.36,43.88Z" transform="translate(0 0)"/>
    </clipPath>
  </defs>
  <g id="Group_2" data-name="Group 2" transform="translate(0.001 0)">
    <path id="Logo-3" data-name="Logo" d="M129.533,49.922a3.07,3.07,0,0,1-1.6-.451,6.2,6.2,0,0,1-2.608-2.76,6.367,6.367,0,0,1-.321-3.9c.575-2.9,1.153-5.484,1.768-7.894a11.853,11.853,0,0,1-1.022,1.028,3.919,3.919,0,0,1-2.646,1.009,4.478,4.478,0,0,1-2.655-.9,7.32,7.32,0,0,1-2.737-3.3,8.9,8.9,0,0,1-.3-1.086c-.039-.167-.079-.338-.123-.505a23.894,23.894,0,0,1,1.274-5.537l.313-.979.011-.034c.608-1.9,1.236-3.874,1.916-5.789.326-.918.733-1.825,1.125-2.7.175-.39.354-.791.525-1.188.1-.222.194-.446.29-.663.192-.435.389-.883.566-1.331.24-.607.478-.958.985-.958a2.027,2.027,0,0,1,.557.1,8.9,8.9,0,0,1,2.317.977,2.42,2.42,0,0,1,1.111,1.421,3.019,3.019,0,0,1-.2,1.84c-.441,1.13-.907,2.271-1.357,3.376-.754,1.848-1.532,3.756-2.218,5.663-.563,1.564-1.017,3.2-1.455,4.781-.192.692-.39,1.407-.594,2.106l-.012.038a.459.459,0,0,0-.034.214c.054.269.119.541.181.8v0l.058.246c.091-.04.19-.072.286-.1a1.418,1.418,0,0,0,.562-.281c.317-.314.642-.628.956-.931a24.122,24.122,0,0,0,3.523-3.937,2.124,2.124,0,0,1,.237-.3.626.626,0,0,1,.4-.24.279.279,0,0,1,.219.12c1.013-3.07,2.066-6.078,3.337-9.65.414-1.164.871-2.335,1.313-3.467.322-.825.654-1.675.967-2.516.2-.543.226-.882.077-1.1s-.507-.329-1.143-.331h-.036a30.963,30.963,0,0,0-4.111.367c-1.066.144-2.168.292-3.261.346-.311.015-.629.023-.944.023-.354,0-.715-.01-1.073-.028-.322-.017-.861-.044-.852-.563.006-.367.332-.4.62-.424.063-.006.121-.011.176-.02l2.176-.327,2.327-.35a2.62,2.62,0,0,1-2.6-1.348,1.811,1.811,0,0,1-.139-.984,17.9,17.9,0,0,1,1.391-4.678l.009-.022.172-.432a1.131,1.131,0,0,1,1.147-.752c.065,0,.133,0,.2.01a5.233,5.233,0,0,1,3.2,1.319,1.992,1.992,0,0,1,.618,2.642,9.35,9.35,0,0,1-2.8,3.752,2.358,2.358,0,0,1-1.047.468c1.206-.18,1.99-.295,2.708-.4l.543-.081a18.364,18.364,0,0,1,2.475-.26,2,2,0,0,0,1.959-1.352c.5-1.19.966-2.445,1.425-3.836.294-.891.489-1.207,1-1.207a3.133,3.133,0,0,1,.8.144l.317.086a4.59,4.59,0,0,1,2.3,1.116,2.717,2.717,0,0,1,.852,2.772c-.122.466-.119.752.012.93s.393.26.876.273c.2.006.423.008.689.008l.542,0,.542,0,0-.2h.117c.319,0,.642,0,.955,0h.015c.356,0,.724,0,1.086,0,.684,0,1.238.009,1.744.03a1.72,1.72,0,0,1,1.12.429,1.229,1.229,0,0,1,.342,1.235,1.342,1.342,0,0,1-1.14.806c-.61.089-1.238.119-1.846.147h0c-.222.01-.451.021-.675.035l-.833.05c-1.131.069-2.3.14-3.453.187a1.964,1.964,0,0,0-1.947,1.324c-.449,1.1-.929,2.207-1.393,3.279a63.3,63.3,0,0,0-3.405,9.134c-.259,1-.623,1.985-.974,2.94-.243.66-.493,1.341-.708,2.019-.612,1.94-1.195,3.924-1.731,5.9s-1.032,3.966-1.514,5.9l-.2.808c-.194.778-.412,1.7-.564,2.633a1.621,1.621,0,0,0,.087.657c.027.1.055.2.074.3.087-.046.183-.085.276-.124a1.377,1.377,0,0,0,.544-.326,16.345,16.345,0,0,0,1.513-2.055c1.341-2.243,2.708-4.589,4.18-7.173.7-1.228,1.4-2.487,2.069-3.7l.575-1.038a10.271,10.271,0,0,1-.254-5.4,19.426,19.426,0,0,1,4.6-9.587,27.849,27.849,0,0,1,3.118-2.787c.3-.238.6-.485.9-.731a1.966,1.966,0,0,1,1.3-.455,3.427,3.427,0,0,1,.986.161c.29.087.589.165.878.24a14.475,14.475,0,0,1,1.432.424l.164.061.008,0a6.994,6.994,0,0,1,1.969.975,3.172,3.172,0,0,1,.949,3.495,38.847,38.847,0,0,1-2.846,7.548l-.062.132a27.342,27.342,0,0,1-1.58,3.046,10.647,10.647,0,0,1-1.744,2,1.561,1.561,0,0,1-1.095.45,2.253,2.253,0,0,1-.785-.158A6.132,6.132,0,0,1,145.4,29.08c-.219-.235-.492-.528-.787-.528a.5.5,0,0,0-.284.094,1.641,1.641,0,0,0-.556,1.063,9.285,9.285,0,0,0-.077,2.423c.226,1.622,1.107,2.553,2.415,2.553a3.4,3.4,0,0,0,.565-.05,8.469,8.469,0,0,0,4.246-2.118,47.236,47.236,0,0,0,5.494-6.029c.974-1.212,2.013-2.4,3.018-3.553l.457-.523a1.09,1.09,0,0,1,.4-.244c.069-.03.139-.06.2-.1a2.507,2.507,0,0,0,.1.258.868.868,0,0,1,.119.529l-.03.1a16.687,16.687,0,0,1-2.2,5.162c-.438.606-.874,1.23-1.3,1.833l0,0c-.776,1.11-1.579,2.257-2.423,3.343a19.953,19.953,0,0,1-2.638,2.749,4.952,4.952,0,0,1-3.417,1.136c-.151,0-.308,0-.468-.013-.122.007-.245.01-.366.01a7.955,7.955,0,0,1-4.825-1.851,9.321,9.321,0,0,1-2.4-2.563,11.174,11.174,0,0,1-.364,1.141c-.977,2.55-2.108,5.21-3.458,8.133a49.253,49.253,0,0,1-2.587,4.711,6.253,6.253,0,0,1-3.518,2.967A3.971,3.971,0,0,1,129.533,49.922ZM150.968,16.7h0c-.092.062-.176.115-.258.166a2.9,2.9,0,0,0-.433.307c-.164.152-.318.32-.467.484-.1.114-.212.232-.322.343a21.157,21.157,0,0,0-4.329,6.692,2.509,2.509,0,0,0,.318,2.4c.159.288.327.422.531.422a.857.857,0,0,0,.489-.2,5.924,5.924,0,0,0,1.822-2.568c.761-1.759,1.5-3.565,2.206-5.312l.014-.035q.331-.813.663-1.626a1.23,1.23,0,0,0,.133-.606.666.666,0,0,0-.22-.31c-.05-.049-.1-.1-.147-.155ZM67.038,49.922a3.07,3.07,0,0,1-1.6-.451,6.2,6.2,0,0,1-2.608-2.76,6.367,6.367,0,0,1-.321-3.9A121.353,121.353,0,0,1,66.122,28.52c1.065-3.259,2.189-6.472,3.547-10.292.093-.26.19-.528.3-.82-.155.112-.3.209-.431.3-.272.181-.554.353-.826.518a10.9,10.9,0,0,0-1.783,1.257A10.534,10.534,0,0,1,65.11,20.73c-.3.179-.617.363-.915.559l-.3.2c-.632.414-1.287.842-1.9,1.3-1.15.853-1.263,1.289-.671,2.591.108.237.226.473.34.7s.225.451.331.682a7.848,7.848,0,0,1,.67,4.713,9.889,9.889,0,0,1-2.044,4.271,4.579,4.579,0,0,1-3.627,1.533l-.295.006.295-.006c-.108,0-.211.007-.322.007l-.282,0-.282,0a10.334,10.334,0,0,1-6.027-2.238l-.082.13A3.292,3.292,0,0,1,47.169,36.8a4.174,4.174,0,0,1-2.214-.694,6.8,6.8,0,0,1-3.342-5.429,7.421,7.421,0,0,0-.187-1.2c-.045-.182-.214-.488-.322-.493H41.09a.7.7,0,0,0-.493.3c-.424.618-.846,1.254-1.254,1.869l0,0c-.791,1.193-1.609,2.427-2.482,3.583a3.591,3.591,0,0,1-2.923,1.715c-.09,0-.182,0-.274-.011-.22-.018-.445-.027-.661-.035a4.212,4.212,0,0,1-2.583-.688,7.021,7.021,0,0,1-2.949-5.637,9.96,9.96,0,0,1,1.5-5.906c.424-.683.833-1.4,1.228-2.084a40.243,40.243,0,0,1,2.167-3.5A22.794,22.794,0,0,1,34.8,15.876c.352-.352.715-.715,1.062-1.081.085-.09.169-.183.251-.274a4.338,4.338,0,0,1,.927-.849,4.028,4.028,0,0,1,2.132-.542l.172,0a9.511,9.511,0,0,1,6.018,2.332,1.551,1.551,0,0,0,.792.455c.249,0,.412-.261.627-.743.083-.187.173-.388.261-.593.419-.978.611-1.294,1.272-1.294a6.06,6.06,0,0,1,.847.088,3.432,3.432,0,0,1,2.255,1.536,2.985,2.985,0,0,1,.5,2.3,19.687,19.687,0,0,1-.966,2.791c-.162.4-.33.818-.482,1.23-.189.512-.378,1.029-.561,1.53-.414,1.132-.843,2.3-1.282,3.448-.167.435-.356.868-.538,1.286-.242.554-.492,1.127-.693,1.711a22.243,22.243,0,0,0-.8,3.021,1.493,1.493,0,0,0,.166.754c.047.119.1.243.129.36.107-.031.223-.054.336-.075a1.408,1.408,0,0,0,.667-.241L47.924,33l.035-.031a1.227,1.227,0,0,1,.214-1.419A10.539,10.539,0,0,1,50,29.612c1.323-1.072,2.7-2.123,4.031-3.14l0,0c.487-.372.991-.756,1.49-1.14.1-.076.2-.15.3-.221.138-.1.281-.2.414-.31a1.33,1.33,0,0,0,.42-1.912c-.378-.795-.768-1.617-1.2-2.405a7.159,7.159,0,0,1-.435-6.305A9.493,9.493,0,0,1,57.692,10.8a4.97,4.97,0,0,1,.709-.538,4.3,4.3,0,0,1,2.291-.8,3.24,3.24,0,0,1,.687.075,13.631,13.631,0,0,1,2.22.65c1.846-.279,3.51-.529,5.173-.769l.543-.081a18.364,18.364,0,0,1,2.475-.26,2,2,0,0,0,1.959-1.352c.5-1.19.966-2.445,1.425-3.836.294-.891.489-1.207,1-1.207a3.132,3.132,0,0,1,.8.144l.317.086a4.59,4.59,0,0,1,2.3,1.116A2.717,2.717,0,0,1,80.44,6.8c-.122.466-.119.752.012.93s.393.26.877.273c.2.006.423.008.689.008l.542,0L83.1,8V7.8h.117c.319,0,.642,0,.955,0h.015c.356,0,.724,0,1.086,0,.683,0,1.238.009,1.744.03a1.723,1.723,0,0,1,1.121.429,1.229,1.229,0,0,1,.342,1.235,1.342,1.342,0,0,1-1.141.806c-.61.089-1.238.119-1.846.147h0c-.222.01-.451.021-.675.035l-.833.05c-1.133.069-2.3.14-3.453.187a1.964,1.964,0,0,0-1.947,1.324c-.449,1.1-.928,2.206-1.391,3.276l0,0a63.286,63.286,0,0,0-3.4,9.133c-.259,1-.623,1.986-.974,2.941-.242.659-.493,1.34-.708,2.019-.612,1.94-1.195,3.924-1.731,5.9s-1.032,3.966-1.514,5.9l-.2.808c-.194.778-.412,1.7-.564,2.633a1.621,1.621,0,0,0,.087.657c.027.1.055.2.074.3.087-.046.183-.085.276-.124a1.377,1.377,0,0,0,.544-.326,16.344,16.344,0,0,0,1.513-2.055c1.341-2.243,2.708-4.589,4.18-7.173.7-1.23,1.4-2.489,2.071-3.706l.024-.044.549-.991a10.271,10.271,0,0,1-.254-5.4,19.43,19.43,0,0,1,4.6-9.587,27.851,27.851,0,0,1,3.118-2.787c.3-.238.6-.485.9-.731a1.966,1.966,0,0,1,1.3-.455,3.427,3.427,0,0,1,.986.161c.29.087.588.164.877.239a14.513,14.513,0,0,1,1.434.425l.173.065a6.991,6.991,0,0,1,1.967.974,3.172,3.172,0,0,1,.949,3.495,38.846,38.846,0,0,1-2.846,7.548l-.066.141a27.168,27.168,0,0,1-1.576,3.037,10.647,10.647,0,0,1-1.744,2,1.561,1.561,0,0,1-1.095.45,2.252,2.252,0,0,1-.785-.158,6.136,6.136,0,0,1-2.444-1.538c-.219-.235-.492-.528-.787-.528a.5.5,0,0,0-.284.094,1.645,1.645,0,0,0-.556,1.063,9.284,9.284,0,0,0-.077,2.423c.226,1.622,1.107,2.553,2.415,2.553a3.4,3.4,0,0,0,.565-.05,8.469,8.469,0,0,0,4.246-2.118,47.24,47.24,0,0,0,5.494-6.029c.494-.615,1.041-1.269,1.721-2.059a71.665,71.665,0,0,1,2.581-7.686c.809-2.087,1.693-4.223,2.628-6.348.4-.911.841-1.821,1.266-2.7s.86-1.777,1.259-2.683c.521-1.181.968-2.425,1.4-3.628l.144-.4c.258-.716.542-.982,1.047-.982a2.865,2.865,0,0,1,.73.121,5.068,5.068,0,0,1,2.509,1.806,2.014,2.014,0,0,1,.393,2.125l-.105.255c-.443,1.073-.9,2.182-1.326,3.286-.113.293-.207.6-.3.9a9.934,9.934,0,0,1-.4,1.157c-.4.894-.823,1.794-1.232,2.665-.648,1.379-1.318,2.8-1.912,4.239-.738,1.783-1.4,3.64-2.034,5.437-.189.532-.383,1.081-.578,1.623-.173.482-.315.987-.452,1.476l0,.006c-.063.225-.128.458-.2.686l.108.028.011,0,.136.036c.463-.739.929-1.49,1.381-2.217l0,0c1.047-1.685,2.129-3.426,3.223-5.119a16.743,16.743,0,0,1,4.5-4.465,2.9,2.9,0,0,1,1.726-.528,3.932,3.932,0,0,1,.879.1,12.822,12.822,0,0,1,2.647.914c1.992.949,2.523,2.809,2.932,4.795a10.162,10.162,0,0,1-.154,3.777c-.043.255-.087.516-.126.773a22.771,22.771,0,0,1-3.072,8.333,5.2,5.2,0,0,1-.91,1.19l-.241.223c-.944.872-1.919,1.774-2.958,2.563a4.124,4.124,0,0,1-2.589.836,7.819,7.819,0,0,1-2.376-.423c-.169-.054-.341-.107-.508-.158a7.362,7.362,0,0,1-3.125-1.551.9.9,0,0,0-.616-.283,1.02,1.02,0,0,0-.735.39,2.962,2.962,0,0,1-2.074,1.188,2.235,2.235,0,0,1-.832-.172,5.931,5.931,0,0,1-3.653-5.965L94.6,30.1c-.7,1-1.5,2.138-2.324,3.2a19.952,19.952,0,0,1-2.638,2.749,4.952,4.952,0,0,1-3.417,1.136c-.151,0-.308,0-.467-.013-.122.007-.245.01-.366.01a7.955,7.955,0,0,1-4.825-1.851,9.321,9.321,0,0,1-2.4-2.563,11.174,11.174,0,0,1-.364,1.141c-.977,2.55-2.108,5.21-3.458,8.133a49.024,49.024,0,0,1-2.587,4.711,6.253,6.253,0,0,1-3.518,2.967A3.971,3.971,0,0,1,67.038,49.922ZM42.734,16.2a1.5,1.5,0,0,0-.763.21,17.343,17.343,0,0,0-3.835,3.253,32.8,32.8,0,0,0-3.953,5.449,20.209,20.209,0,0,0-2.53,5.767,10.059,10.059,0,0,0-.183,1.244c-.02.19-.041.387-.066.579l.113.018c.006.077.012.155.017.232.013.186.026.378.056.566a.948.948,0,0,0,.112.278c.017.032.034.065.05.1.2.417.39.595.634.595a1.018,1.018,0,0,0,.491-.167,2.915,2.915,0,0,0,.769-.647l.2-.24A21.184,21.184,0,0,0,35.3,31.588c.783-1.168,1.56-2.365,2.313-3.523.659-1.013,1.34-2.061,2.021-3.085,1.724-2.594,3.159-4.707,4.516-6.652A1.024,1.024,0,0,0,44.132,17,1.709,1.709,0,0,0,42.734,16.2ZM57.888,26.593a1.3,1.3,0,0,0-.739.33c-1.74,1.341-3.309,2.555-4.906,3.825a12.425,12.425,0,0,0-1.593,1.464,1.054,1.054,0,0,0-.34.95,1,1,0,0,0,.762.6,12.577,12.577,0,0,0,1.451.3h0c.21.035.427.071.639.111l.021-.138c.067,0,.135,0,.2,0s.134,0,.2,0a2.178,2.178,0,0,0,.231-.011c.161-.017.326-.029.485-.04a3.048,3.048,0,0,0,1.926-.575,6.525,6.525,0,0,0,2.291-5.939C58.448,26.9,58.229,26.593,57.888,26.593Zm55.361-10.108a1.478,1.478,0,0,0-.889.343c-.21.2-.423.39-.629.578a18.157,18.157,0,0,0-2.595,2.72c-1.438,2.007-2.712,4.165-4,6.384-.565.972-1.067,2.008-1.553,3.009-.257.53-.522,1.077-.795,1.609a1.511,1.511,0,0,0,.3,1.725,2.716,2.716,0,0,0,2.141,1.2,2.446,2.446,0,0,0,1.541-.58,13.25,13.25,0,0,0,3.431-3.61c.223-.394.469-.784.707-1.162a14.977,14.977,0,0,0,1.273-2.312,28.557,28.557,0,0,0,1.319-4.558c.2-.924.316-1.893.425-2.83.049-.418.1-.85.157-1.273-.064-.142-.118-.3-.17-.448-.114-.332-.222-.645-.419-.743A.556.556,0,0,0,113.249,16.485ZM88.473,16.7h0c-.092.062-.177.115-.259.167a2.9,2.9,0,0,0-.432.307c-.164.152-.318.32-.467.484-.1.114-.212.232-.322.343a21.156,21.156,0,0,0-4.329,6.692,2.509,2.509,0,0,0,.318,2.4c.159.288.327.422.53.422a.857.857,0,0,0,.489-.2,5.923,5.923,0,0,0,1.822-2.568c.761-1.76,1.5-3.567,2.207-5.314l.008-.02q.334-.82.668-1.639a1.238,1.238,0,0,0,.133-.606.668.668,0,0,0-.22-.31c-.049-.049-.1-.1-.146-.155ZM70.85,10.813a30.983,30.983,0,0,0-4.112.367c-.408.055-.829.112-1.245.162a1.235,1.235,0,0,1,.146.2.7.7,0,0,1,.095.566.652.652,0,0,1-.4.379,1.014,1.014,0,0,1-.243.072,7.726,7.726,0,0,0-3.988,2.37,5.977,5.977,0,0,0-2.158,5.839c.173.829.4,1.167.8,1.167a1.971,1.971,0,0,0,.931-.359c.5-.3,1-.631,1.489-.948.594-.388,1.208-.789,1.83-1.15,1.306-.76,2.651-1.5,3.951-2.221l.021-.012c.512-.283,1.041-.575,1.56-.865.34-.189.692-.385,1.04-.568q.2-.522.406-1.043c.323-.828.657-1.683.972-2.529.2-.543.226-.882.077-1.1s-.507-.329-1.143-.331ZM17.36,43.88h-.01a4.223,4.223,0,0,1-2.22-.467,17.938,17.938,0,0,1-2-1.53l-.052-.044a2.147,2.147,0,0,1-.791-1.684c-.005-.483-.034-.974-.061-1.448-.012-.2-.024-.411-.034-.617a21.607,21.607,0,0,1,.889-5.431c.742-2.7,1.711-5.376,2.647-7.962q.21-.579.419-1.158l.1-.279c.883-2.453,1.8-4.99,2.905-7.4l.107-.232c.209-.455.425-.924.627-1.392a.235.235,0,0,0-.03-.22.273.273,0,0,0-.215-.134.172.172,0,0,0-.045.006c-.195.052-.393.1-.585.153h0c-.538.139-1.094.282-1.626.467-.4.139-.806.278-1.2.413-1.549.531-3.15,1.08-4.686,1.716a31.049,31.049,0,0,0-6.251,3.294,6.654,6.654,0,0,0-1.895,1.951,3.034,3.034,0,0,0-.593,1.8,1.579,1.579,0,0,1-.036.41.629.629,0,0,1-.6.525.515.515,0,0,1-.342-.131A4.263,4.263,0,0,1,.071,21.618c0-.039-.007-.078-.012-.116l0-.022a5.38,5.38,0,0,1,1.651-4.868,14.345,14.345,0,0,1,2.98-2.141,60.117,60.117,0,0,1,6.689-3.021A102.683,102.683,0,0,1,22.753,7.817c1.3-.354,2.641-.641,3.938-.919.751-.161,1.528-.327,2.288-.5,2.244-.522,4.484-.952,6.657-1.277.831-.124,1.816-.265,2.824-.366.41-.041.826-.088,1.229-.133a35.4,35.4,0,0,1,3.922-.292h.126a1.569,1.569,0,0,1,1.6,1,4.754,4.754,0,0,1,.493,2.536A1.249,1.249,0,0,1,44.684,9.17l-.287.06-.021,0a18.563,18.563,0,0,1-2.63.423,48.687,48.687,0,0,0-5.119.554c-.942.16-1.887.319-2.8.472-1.186.2-2.413.405-3.625.613-.243.042-.488.1-.724.156-.153.036-.312.074-.469.107l-.015,0c-1.457.305-1.457.305-2.163,1.532a10.307,10.307,0,0,0-.509.975c-.282.637-.561,1.289-.831,1.919v0c-.546,1.275-1.11,2.593-1.726,3.859C22.9,21.624,22.2,23.442,21.5,25.3c-.52,1.376-1,2.791-1.474,4.159l-.086.251c-.2.574-.385,1.162-.566,1.73-.148.461-.3.938-.456,1.4a15.324,15.324,0,0,0-.88,3.6,7.7,7.7,0,0,1-.2,1.082c-.051.22-.1.447-.144.673a8.174,8.174,0,0,0,.282,4.347l.025.066,0,0a1.441,1.441,0,0,1,.064.189.951.951,0,0,1-.124.809A.7.7,0,0,1,17.36,43.88Z" transform="translate(0 0)"/>
    <g id="Mask_Group_2" data-name="Mask Group 2" clip-path="url(#clip-path)">
      <rect id="Color" width="161" height="50" transform="translate(-0.001 0)"/>
    </g>
  </g>
</svg>
